<svg xmlns="http://www.w3.org/2000/svg" viewBox="0 0 299.84 195.33"><g id="Layer_2" data-name="Layer 2"><g id="Layer_1-2" data-name="Layer 1"><path class="cls-1" d="M0,194.6V165.66H10.2L14,179.75q.51,1.87.92,3.63t.73,3.43q.37-1.77.85-3.7t1.08-4.16l3.6-13.28H31.36V194.6H24.6V181.77q0-1.36.07-3.8t.21-5.65L19.32,194.6H12L6.52,172.32q.14,3.85.22,6.93t.08,4.8V194.6Z"></path><path class="cls-1" d="M56.55,194.6H49.42q-.12-.51-.21-1.06T49,192.4a10,10,0,0,1-3.13,2.18,9.21,9.21,0,0,1-3.65.71,6.82,6.82,0,0,1-4.88-1.7,6,6,0,0,1-1.8-4.59,6.45,6.45,0,0,1,1.4-4.31,7.68,7.68,0,0,1,4.25-2.33q1.57-.35,4-.77,3.62-.59,3.62-1.73v-.51a1.6,1.6,0,0,0-.7-1.4,3.66,3.66,0,0,0-2.07-.48,4.08,4.08,0,0,0-2.37.61,2.66,2.66,0,0,0-1.09,1.79H36.18a7.54,7.54,0,0,1,3-5.38q2.49-1.77,7.06-1.77a14.61,14.61,0,0,1,4.8.69,6.54,6.54,0,0,1,3.06,2.08,6.1,6.1,0,0,1,1.08,2.39,22.26,22.26,0,0,1,.32,4.45v8.1a7.84,7.84,0,0,0,.26,2.29,1.69,1.69,0,0,0,.8,1.09Zm-7.7-10.06a9.39,9.39,0,0,1-2.83.94q-1,.2-1.49.33a3.9,3.9,0,0,0-1.78.9,2.06,2.06,0,0,0-.52,1.47,2.47,2.47,0,0,0,.71,1.84,2.54,2.54,0,0,0,1.87.7,4.16,4.16,0,0,0,2.92-1,3.48,3.48,0,0,0,1.13-2.7Z"></path><path class="cls-1" d="M60.17,194.6V173.24h6.72V177a7.7,7.7,0,0,1,2.79-3.21,8.33,8.33,0,0,1,4.24-1.05v6.92l-.89-.09-.83,0a6.41,6.41,0,0,0-2.66.48,3.83,3.83,0,0,0-1.68,1.48,5.2,5.2,0,0,0-.56,1.92,34.06,34.06,0,0,0-.17,4v7.17Z"></path><path class="cls-1" d="M77.11,194.6V165.66h7V194.6Z"></path><path class="cls-1" d="M89,171.3v-5.64h7v5.64Zm0,23.31V173.24h7V194.6Z"></path><path class="cls-1" d="M100.88,194.6V173.24h6.84v2.93a7.24,7.24,0,0,1,2.69-2.6,7.91,7.91,0,0,1,3.79-.85q3.75,0,5.43,1.88t1.68,6.12V194.6h-7V183.85q0-3.77-.63-4.8a2.49,2.49,0,0,0-2.32-1,3,3,0,0,0-2.69,1.23,7.07,7.07,0,0,0-.85,3.92V194.6Z"></path><path class="cls-2" d="M133,194.6V165.66h8l5.46,9.51q1.34,2.32,2.54,4.6t2.26,4.5q-.16-3.28-.24-6.15t-.08-5.05v-7.41h7.15V194.6h-8l-5.68-9.79q-1-1.73-2.18-3.88t-2.5-4.65q.22,2.83.31,5.27t.1,4.32v8.72Z"></path><path class="cls-2" d="M176.75,187.88h6.72a9.34,9.34,0,0,1-3.7,5.44,11.68,11.68,0,0,1-6.85,1.93,10.37,10.37,0,0,1-7.86-3,11.4,11.4,0,0,1-2.89-8.22,11.77,11.77,0,0,1,2.91-8.4,10.24,10.24,0,0,1,7.84-3.09,10.36,10.36,0,0,1,8,3.14q2.91,3.14,2.91,8.69,0,.51,0,.78c0,.18,0,.33,0,.46H169.34a5.32,5.32,0,0,0,1,3.45,3.48,3.48,0,0,0,2.86,1.19,4.13,4.13,0,0,0,2.3-.59A3.16,3.16,0,0,0,176.75,187.88Zm-7.6-6.23,8,0a4.77,4.77,0,0,0-1.09-3.22,3.69,3.69,0,0,0-2.88-1.16,3.54,3.54,0,0,0-2.76,1.14A5.48,5.48,0,0,0,169.15,181.65Z"></path><path class="cls-2" d="M185.24,177.47v-4.23h2.87v-6.05h7v6.05h3.58v4.23h-3.58v9.26a4.88,4.88,0,0,0,.55,2.81,2.54,2.54,0,0,0,2.06.69h.52l.36,0v4.46q-1.1.22-2.15.33a18.22,18.22,0,0,1-2,.12q-3.64,0-5-1.78t-1.34-7.58v-8.27Z"></path><path class="cls-2" d="M206.89,194.6l-6.33-21.36h7.13l3,14.68,2.57-14.68h7.21l2.65,14.68,3.07-14.68h7.11l-6.31,21.36h-7.21L217,180.51l-3,14.09Z"></path><path class="cls-2" d="M234.76,183.89q0-5.36,3-8.39t8.31-3q5.33,0,8.34,3t3,8.39q0,5.36-3,8.4t-8.34,3q-5.35,0-8.33-3T234.76,183.89Zm7.17,0a7.9,7.9,0,0,0,1.08,4.5,3.5,3.5,0,0,0,3.07,1.57,3.54,3.54,0,0,0,3.09-1.58,7.86,7.86,0,0,0,1.09-4.49,7.77,7.77,0,0,0-1.09-4.46,3.55,3.55,0,0,0-3.09-1.57,3.5,3.5,0,0,0-3.08,1.56A7.87,7.87,0,0,0,241.93,183.89Z"></path><path class="cls-2" d="M261.13,194.6V173.24h6.72V177a7.7,7.7,0,0,1,2.79-3.21,8.33,8.33,0,0,1,4.24-1.05v6.92l-.89-.09-.83,0a6.41,6.41,0,0,0-2.66.48,3.83,3.83,0,0,0-1.68,1.48,5.2,5.2,0,0,0-.56,1.92,34.06,34.06,0,0,0-.17,4v7.17Z"></path><path class="cls-2" d="M278.11,194.6V165.66H285v14.93l6.45-7.35h8.21l-7.41,8.16,7.6,13.2h-7.76l-4.52-8.45L285,188.84v5.76Z"></path><polygon class="cls-1" points="88.39 32.68 88.39 118.73 115.37 99.81 115.37 51.58 88.39 32.68"></polygon><polygon class="cls-1" points="211.24 0.01 211.24 85.68 184.35 66.9 184.35 51.67 149.81 75.71 126.25 59.2 211.24 0.01"></polygon><polygon class="cls-2" points="155.32 79.57 211.24 118.73 211.24 85.68 178.93 63.12 155.32 79.57"></polygon><polygon class="cls-2" points="149.78 42.81 88.39 0 88.39 32.68 126.25 59.2 149.78 42.81"></polygon></g></g></svg>